<svg width="66" height="67" viewBox="0 0 66 67" fill="none" xmlns="http://www.w3.org/2000/svg">
<path d="M8.5 28.2604C8.5 25.9769 9.40712 23.7869 11.0218 22.1722C12.6365 20.5575 14.8265 19.6504 17.11 19.6504C19.3911 19.6583 21.5765 20.568 23.1895 22.1809C24.8024 23.7939 25.7121 25.9793 25.72 28.2604M22.837 8.15968C22.837 11.3243 20.2715 13.8897 17.107 13.8897C13.9424 13.8897 11.377 11.3243 11.377 8.15968C11.377 4.99509 13.9424 2.42969 17.107 2.42969C20.2715 2.42969 22.837 4.99509 22.837 8.15968Z" stroke="black" stroke-width="4" stroke-miterlimit="10"/>
<path opacity="0.4" d="M40.7188 28.2604C40.7267 25.9793 41.6363 23.7939 43.2493 22.1809C44.8623 20.568 47.0477 19.6583 49.3287 19.6504C51.6123 19.6504 53.8022 20.5575 55.4169 22.1722C57.0316 23.7869 57.9387 25.9769 57.9387 28.2604M55.0616 8.15968C55.0616 11.3243 52.4962 13.8897 49.3316 13.8897C46.167 13.8897 43.6016 11.3243 43.6016 8.15968C43.6016 4.99509 46.167 2.42969 49.3316 2.42969C52.4962 2.42969 55.0616 4.99509 55.0616 8.15968Z" stroke="black" stroke-width="4" stroke-miterlimit="10"/>
<path d="M8.5 65.0924C8.5 62.8089 9.40712 60.6189 11.0218 59.0042C12.6365 57.3895 14.8265 56.4824 17.11 56.4824C19.3911 56.4903 21.5765 57.4 23.1895 59.013C24.8024 60.6259 25.7121 62.8113 25.72 65.0924M22.837 44.9917C22.837 48.1563 20.2715 50.7217 17.107 50.7217C13.9424 50.7217 11.377 48.1563 11.377 44.9917C11.377 41.8271 13.9424 39.2617 17.107 39.2617C20.2715 39.2617 22.837 41.8271 22.837 44.9917Z" stroke="black" stroke-width="4" stroke-miterlimit="10"/>
<path d="M40.7188 65.0924C40.7267 62.8113 41.6363 60.6259 43.2493 59.013C44.8623 57.4 47.0477 56.4903 49.3287 56.4824C51.6123 56.4824 53.8022 57.3895 55.4169 59.0042C57.0316 60.6189 57.9387 62.8089 57.9387 65.0924M55.0616 44.9917C55.0616 48.1563 52.4962 50.7217 49.3316 50.7217C46.167 50.7217 43.6016 48.1563 43.6016 44.9917C43.6016 41.8271 46.167 39.2617 49.3316 39.2617C52.4962 39.2617 55.0616 41.8271 55.0616 44.9917Z" stroke="black" stroke-width="4" stroke-miterlimit="10"/>
</svg>
