<svg width="66" height="67" viewBox="0 0 66 67" fill="none" xmlns="http://www.w3.org/2000/svg">
<path d="M33 61.4297C48.464 61.4297 61 48.8937 61 33.4297C61 17.9657 48.464 5.42969 33 5.42969C17.536 5.42969 5 17.9657 5 33.4297C5 48.8937 17.536 61.4297 33 61.4297Z" stroke="black" stroke-width="4" stroke-linecap="round" stroke-linejoin="round"/>
<path d="M14 52.4297L23 43.4297" stroke="black" stroke-width="4" stroke-linecap="round" stroke-linejoin="round"/>
<path d="M52 52.4297L43 43.4297" stroke="black" stroke-width="4" stroke-linecap="round" stroke-linejoin="round"/>
<path d="M23 23.4297L14 14.4297" stroke="black" stroke-width="4" stroke-linecap="round" stroke-linejoin="round"/>
<path d="M43 23.4297L52 14.4297" stroke="black" stroke-width="4" stroke-linecap="round" stroke-linejoin="round"/>
<path d="M33 45.4297C39.6274 45.4297 45 40.0571 45 33.4297C45 26.8023 39.6274 21.4297 33 21.4297C26.3726 21.4297 21 26.8023 21 33.4297C21 40.0571 26.3726 45.4297 33 45.4297Z" stroke="black" stroke-width="4" stroke-linecap="round" stroke-linejoin="round"/>
</svg>
