<svg width="94" height="94" viewBox="0 0 94 94" fill="none" xmlns="http://www.w3.org/2000/svg">
<path d="M26.6311 55.7811L26.6311 38.6217M26.6311 55.7811C26.6271 56.5372 26.7736 57.2865 27.062 57.9855C27.3504 58.6844 27.775 59.319 28.3111 59.8522C28.8472 60.3855 29.484 60.8068 30.1845 61.0915C30.8849 61.3763 31.6351 61.5188 32.3912 61.5109L53.3915 61.5109C61.928 61.5021 70.1142 58.1156 76.1618 52.0912C77.4517 50.7909 78.1744 49.0329 78.1719 47.2014C78.1664 45.3656 77.4327 43.6069 76.1318 42.3116C70.0842 36.2871 61.898 32.9007 53.3615 32.8919L32.3612 32.8919C31.6076 32.8879 30.8607 33.0334 30.1637 33.32C29.4667 33.6065 28.8334 34.0284 28.3006 34.5613C27.7677 35.0941 27.3457 35.7273 27.0592 36.4243C26.7726 37.1213 26.6271 37.8681 26.6311 38.6217M26.6311 55.7811L15.1717 52.9313L15.1717 41.4718L26.6311 38.6217M55.2531 61.5089L38.0928 75.8484L32.3627 75.8484V61.5089L55.2531 61.5089ZM55.2517 32.8934L38.0914 18.584L32.3613 18.584L32.3613 32.8934L55.2517 32.8934Z" stroke="black" stroke-width="4" stroke-miterlimit="10"/>
<path opacity="0.4" d="M68.481 36.6646C67.0341 38.0042 65.8798 39.6284 65.0903 41.4352C64.3009 43.242 63.8933 45.1924 63.8933 47.1642C63.8933 49.1359 64.3009 51.0864 65.0903 52.8932C65.8798 54.7 67.0341 56.3242 68.481 57.6638M46.6736 52.929C43.509 52.929 40.9435 50.3637 40.9435 47.1993C40.9435 44.0348 43.509 41.4695 46.6736 41.4695C49.8383 41.4695 52.4037 44.0348 52.4037 47.1993C52.4037 50.3637 49.8383 52.929 46.6736 52.929Z" stroke="black" stroke-width="4" stroke-miterlimit="10"/>
</svg>
