<svg width="66" height="67" viewBox="0 0 66 67" fill="none" xmlns="http://www.w3.org/2000/svg">
<path opacity="0.4" d="M4 12.4297C4 8.01141 7.58172 4.42969 12 4.42969L54 4.42969C58.4184 4.42969 62 8.01141 62 12.4297V42.4297C62 46.8481 58.4184 50.4297 54 50.4297H43.5L33 62.4297L22.5 50.4297H12C7.58172 50.4297 4 46.8481 4 42.4297L4 12.4297Z" stroke="black" stroke-width="4" stroke-linecap="round" stroke-linejoin="round"/>
<path d="M32.7489 15.9375V24.5582M34.9041 37.4892C34.9041 38.6793 33.939 39.6444 32.7489 39.6444C31.5588 39.6444 30.5938 38.6793 30.5938 37.4892C30.5938 36.2991 31.5588 35.3341 32.7489 35.3341C33.939 35.3341 34.9041 36.2991 34.9041 37.4892Z" stroke="black" stroke-width="4" stroke-linecap="round" stroke-linejoin="round"/>
</svg>
